<svg width="30" height="30" viewBox="0 0 30 30" fill="none" xmlns="http://www.w3.org/2000/svg">
<g clip-path="url(#clip0_902_53)">
<rect width="30" height="30" rx="8" fill="#C0DDFF"/>
<path d="M21.9316 9.23968C20.6609 8.65983 19.2903 8.23994 17.8596 8C17.8296 8 17.8095 8.01 17.7895 8.02999C17.6094 8.33991 17.4194 8.73981 17.2793 9.04973C15.7385 8.81979 14.2078 8.81979 12.7071 9.04973C12.577 8.72981 12.3769 8.33991 12.1968 8.02999C12.1868 8.01 12.1568 8 12.1368 8C10.7061 8.23994 9.33541 8.66982 8.06479 9.23968C8.05479 9.23968 8.04478 9.24967 8.03478 9.25967C5.44352 13.0687 4.73317 16.7877 5.08334 20.4567C5.08334 20.4767 5.09334 20.4967 5.11335 20.5067C6.81418 21.7464 8.47499 22.4962 10.0958 22.9961C10.1258 23.0061 10.1458 22.9961 10.1658 22.9761C10.546 22.4562 10.8962 21.9164 11.1863 21.3365C11.2063 21.3065 11.1863 21.2665 11.1563 21.2465C10.616 21.0466 10.0958 20.7967 9.59554 20.5167C9.55552 20.4967 9.55552 20.4367 9.58553 20.4168C9.68558 20.3368 9.79564 20.2568 9.89569 20.1768C9.91569 20.1668 9.9357 20.1568 9.95571 20.1668C13.2273 21.6364 16.779 21.6364 20.0106 20.1668C20.0306 20.1568 20.0606 20.1568 20.0806 20.1768C20.1807 20.2568 20.2807 20.3368 20.3908 20.4168C20.4308 20.4467 20.4208 20.4967 20.3808 20.5167C19.8806 20.8066 19.3603 21.0466 18.82 21.2465C18.78 21.2565 18.77 21.2965 18.79 21.3365C19.0902 21.9064 19.4303 22.4562 19.8105 22.9661C19.8305 22.9861 19.8505 22.9961 19.8806 22.9861C21.5113 22.4862 23.1722 21.7364 24.883 20.5067C24.893 20.4967 24.903 20.4767 24.913 20.4567C25.3332 16.2079 24.2127 12.5288 21.9516 9.25967C21.9516 9.25967 21.9416 9.24967 21.9316 9.23968ZM11.6766 18.2273C10.6861 18.2273 9.87568 17.3376 9.87568 16.2478C9.87568 15.1581 10.6761 14.2684 11.6766 14.2684C12.687 14.2684 13.4874 15.1681 13.4774 16.2478C13.4774 17.3376 12.677 18.2273 11.6766 18.2273ZM18.3298 18.2273C17.3393 18.2273 16.5289 17.3376 16.5289 16.2478C16.5289 15.1581 17.3293 14.2684 18.3298 14.2684C19.3403 14.2684 20.1407 15.1681 20.1307 16.2478C20.1307 17.3376 19.3403 18.2273 18.3298 18.2273Z" fill="black"/>
</g>
<defs>
<clipPath id="clip0_902_53">
<rect width="30" height="30" fill="white"/>
</clipPath>
</defs>
</svg>
