<svg width="50" height="50" viewBox="0 0 50 50" fill="none" xmlns="http://www.w3.org/2000/svg">
<g clip-path="url(#clip0_302_84)">
<g clip-path="url(#clip1_302_84)">
<rect width="53" height="53" transform="translate(-2 -3)" fill="black"/>
<path fill-rule="evenodd" clip-rule="evenodd" d="M24.5006 -1.89584C18.2095 -1.89258 12.1248 0.335585 7.33431 4.39023C2.54386 8.44487 -0.639906 14.0616 -1.6477 20.2361C-2.65549 26.4105 -1.4216 32.7401 1.83336 38.093C5.08832 43.446 10.1521 47.4731 16.1192 49.4545C17.4356 49.6988 17.9315 48.8829 17.9315 48.1891C17.9315 47.4954 17.9052 45.484 17.8964 43.2849C10.5243 44.8775 8.96653 40.174 8.96653 40.174C7.76417 37.1197 6.02646 36.3169 6.02646 36.3169C3.62176 34.6851 6.20639 34.7156 6.20639 34.7156C8.87 34.9032 10.2698 37.4339 10.2698 37.4339C12.6306 41.4611 16.4702 40.2961 17.9798 39.6155C18.2167 37.9095 18.9057 36.7489 19.6648 36.09C13.7759 35.4268 7.58864 33.1667 7.58864 23.0703C7.55214 20.4518 8.52936 17.9196 10.3181 15.9976C10.046 15.3344 9.13766 12.6554 10.577 9.01648C10.577 9.01648 12.8018 8.30965 17.8657 11.7173C22.2092 10.5362 26.7919 10.5362 31.1354 11.7173C36.195 8.30965 38.4154 9.01648 38.4154 9.01648C39.8591 12.6467 38.9507 15.3256 38.6787 15.9976C40.473 17.92 41.4523 20.4566 41.4125 23.079C41.4125 33.1972 35.212 35.4268 29.3143 36.0769C30.2622 36.8972 31.1091 38.4985 31.1091 40.9593C31.1091 44.4848 31.0784 47.3209 31.0784 48.1891C31.0784 48.8916 31.5567 49.7119 32.8995 49.4545C38.8673 47.4729 43.9315 43.445 47.1864 38.0912C50.4413 32.7374 51.6746 26.4068 50.6657 20.2318C49.6567 14.0567 46.4714 8.43994 41.6793 4.38599C36.8873 0.332048 30.8011 -1.89465 24.5093 -1.89584H24.5006Z" fill="#C0DDFF"/>
<path d="M8.03563 35.9373C7.97859 36.0682 7.76796 36.1075 7.59682 36.0159C7.42568 35.9242 7.29844 35.7541 7.35987 35.6188C7.42131 35.4836 7.62755 35.4486 7.79868 35.5403C7.96982 35.6319 8.10146 35.8064 8.03563 35.9373Z" fill="#C0DDFF"/>
<path d="M9.11079 37.1285C9.01992 37.174 8.91595 37.1867 8.81669 37.1644C8.71743 37.1421 8.62905 37.0862 8.56667 37.0063C8.39553 36.823 8.36041 36.57 8.49205 36.4565C8.62369 36.3431 8.86067 36.3955 9.03181 36.5787C9.20295 36.762 9.24244 37.015 9.11079 37.1285Z" fill="#C0DDFF"/>
<path d="M10.1552 38.6425C9.99287 38.756 9.7164 38.6425 9.56282 38.4156C9.52035 38.3749 9.48658 38.3261 9.46351 38.2722C9.44043 38.2182 9.42853 38.1601 9.42853 38.1015C9.42853 38.0428 9.44043 37.9848 9.46351 37.9308C9.48658 37.8768 9.52035 37.828 9.56282 37.7873C9.72518 37.6783 10.0016 37.7873 10.1552 38.0099C10.3088 38.2324 10.3132 38.5291 10.1552 38.6425V38.6425Z" fill="#C0DDFF"/>
<path d="M11.5725 40.1085C11.4277 40.27 11.1337 40.2263 10.8924 40.0082C10.651 39.79 10.594 39.4933 10.7388 39.3362C10.8836 39.1792 11.1776 39.2228 11.4277 39.4366C11.6778 39.6504 11.7261 39.9514 11.5725 40.1085V40.1085Z" fill="#C0DDFF"/>
<path d="M13.5603 40.9637C13.4945 41.1688 13.1961 41.2604 12.8977 41.1732C12.5993 41.0859 12.4018 40.8416 12.4589 40.6321C12.5159 40.4227 12.8187 40.3267 13.1215 40.4227C13.4242 40.5187 13.6173 40.7499 13.5603 40.9637Z" fill="#C0DDFF"/>
<path d="M15.7281 41.1121C15.7281 41.3259 15.4824 41.5091 15.1665 41.5135C14.8505 41.5178 14.5916 41.3433 14.5916 41.1295C14.5916 40.9157 14.8373 40.7325 15.1533 40.7281C15.4692 40.7237 15.7281 40.8939 15.7281 41.1121Z" fill="#C0DDFF"/>
<path d="M17.7467 40.7761C17.7862 40.9899 17.5668 41.2124 17.2508 41.2647C16.9349 41.3171 16.6584 41.1906 16.619 40.9811C16.5795 40.7717 16.8076 40.5448 17.1148 40.4881C17.422 40.4314 17.7072 40.5623 17.7467 40.7761Z" fill="#C0DDFF"/>
</g>
</g>
<defs>
<clipPath id="clip0_302_84">
<rect width="50" height="50" rx="25" fill="white"/>
</clipPath>
<clipPath id="clip1_302_84">
<rect width="53" height="53" fill="white" transform="translate(-2 -3)"/>
</clipPath>
</defs>
</svg>
