<svg width="151" height="151" viewBox="0 0 151 151" fill="none" xmlns="http://www.w3.org/2000/svg">
<g clip-path="url(#clip0_702_2)">
<path d="M127.273 0H23.569C10.5522 0 0 10.5522 0 23.569V127.273C0 140.29 10.5522 150.842 23.569 150.842H127.273C140.29 150.842 150.842 140.29 150.842 127.273V23.569C150.842 10.5522 140.29 0 127.273 0Z" fill="#C0DDFF"/>
<path d="M54.6802 113.131H38.6532V62.6936H54.6802V113.131ZM46.6667 55.6229C41.4815 55.6229 37.7104 51.8519 37.7104 46.6667C37.7104 41.4815 41.9529 37.7104 46.6667 37.7104C51.8519 37.7104 55.6229 41.4815 55.6229 46.6667C55.6229 51.8519 51.8519 55.6229 46.6667 55.6229ZM113.131 113.131H97.1044V85.7913C97.1044 77.7778 93.8047 75.4209 89.0909 75.4209C84.3771 75.4209 79.6633 79.1919 79.6633 86.2626V113.131H63.6364V62.6936H78.7205V69.7643C80.1347 66.4647 85.7912 61.2795 93.8047 61.2795C102.761 61.2795 112.189 66.4647 112.189 82.0202V113.131H113.131Z" fill="black"/>
</g>
<defs>
<clipPath id="clip0_702_2">
<rect width="150.84" height="150.84" fill="white"/>
</clipPath>
</defs>
</svg>
