<svg width="1150" height="1150" viewBox="0 0 1150 1150" fill="none" xmlns="http://www.w3.org/2000/svg">
<path d="M0 400C0 259.987 0 189.98 27.2484 136.502C51.2167 89.4619 89.4619 51.2167 136.502 27.2484C189.98 0 259.987 0 400 0H750C890.013 0 960.02 0 1013.5 27.2484C1060.54 51.2167 1098.78 89.4619 1122.75 136.502C1150 189.98 1150 259.987 1150 400V750C1150 890.013 1150 960.02 1122.75 1013.5C1098.78 1060.54 1060.54 1098.78 1013.5 1122.75C960.02 1150 890.013 1150 750 1150H400C259.987 1150 189.98 1150 136.502 1122.75C89.4619 1098.78 51.2167 1060.54 27.2484 1013.5C0 960.02 0 890.013 0 750V400Z" fill="url(#paint0_linear_302_2)"/>
<path fill-rule="evenodd" clip-rule="evenodd" d="M260.277 568.931C427.901 495.9 539.677 447.753 595.604 424.491C755.288 358.073 788.469 346.535 810.096 346.154C814.852 346.071 825.488 347.249 832.377 352.84C838.194 357.56 839.795 363.936 840.561 368.411C841.326 372.887 842.28 383.081 841.522 391.047C832.869 481.968 795.426 702.61 776.377 804.443C768.317 847.532 752.446 861.98 737.081 863.394C703.69 866.467 678.334 841.327 645.993 820.127C595.386 786.953 566.796 766.302 517.672 733.93C460.902 696.519 497.704 675.958 530.057 642.354C538.524 633.56 685.647 499.74 688.495 487.601C688.851 486.083 689.181 480.423 685.819 477.435C682.457 474.447 677.495 475.468 673.914 476.281C668.838 477.433 587.992 530.869 431.376 636.59C408.428 652.348 387.642 660.025 369.019 659.623C348.489 659.18 308.996 648.015 279.638 638.472C243.628 626.766 215.009 620.578 217.501 600.699C218.799 590.344 233.058 579.755 260.277 568.931Z" fill="#111111"/>
<defs>
<linearGradient id="paint0_linear_302_2" x1="575" y1="0" x2="575" y2="1150" gradientUnits="userSpaceOnUse">
<stop stop-color="#C0DDFF"/>
<stop offset="0.9998" stop-color="#ADC6E4"/>
<stop offset="0.9999" stop-color="#94A9C2"/>
<stop offset="1" stop-color="#1D1D1D"/>
</linearGradient>
</defs>
</svg>
