<svg width="151" height="151" viewBox="0 0 151 151" fill="none" xmlns="http://www.w3.org/2000/svg">
<g clip-path="url(#clip0_702_7)">
<path d="M127.273 0L23.569 0C10.5522 0 0 10.5522 0 23.569L0 127.273C0 140.29 10.5522 150.842 23.569 150.842H127.273C140.29 150.842 150.842 140.29 150.842 127.273V23.569C150.842 10.5522 140.29 0 127.273 0Z" fill="#C0DDFF"/>
<path d="M113.131 51.8519C110.303 53.266 107.475 53.7374 104.175 54.2088C107.475 52.3233 109.832 49.495 110.774 45.7239C107.946 47.6095 104.647 48.5522 100.875 49.495C98.0472 46.6667 93.8047 44.7812 89.5623 44.7812C79.6633 44.7812 72.1212 54.2088 74.4781 63.6364C61.7509 63.165 50.4377 57.0371 42.4243 47.6095C38.1818 54.6802 40.5387 63.6364 47.1381 68.3502C44.7812 68.3502 42.4243 67.4075 40.0674 66.4647C40.0674 73.5354 45.2525 80.1347 52.3233 82.0202C49.9663 82.4916 47.6094 82.963 45.2525 82.4916C47.1381 88.6196 52.7946 93.3334 59.8653 93.3334C54.2088 97.5758 45.7239 99.9327 37.7104 98.9899C44.7812 103.232 52.7946 106.061 61.2795 106.061C90.0337 106.061 106.061 82.0202 105.118 59.8654C108.418 57.9798 111.246 55.1516 113.131 51.8519Z" fill="black"/>
</g>
<defs>
<clipPath id="clip0_702_7">
<rect width="150.84" height="150.84" fill="white"/>
</clipPath>
</defs>
</svg>
