<svg width="1544" height="500" viewBox="0 0 1544 500" fill="none" xmlns="http://www.w3.org/2000/svg">
<g clip-path="url(#clip0_0_1)" filter="url(#filter0_d_0_1)">
<rect width="1536" height="492" transform="translate(4)" fill="#0D1820"/>
<path d="M320 357C354.341 357 385.926 350.119 409.295 338.532C432.042 327.253 450 309.803 450 287.5C450 265.197 432.042 247.747 409.295 236.468C385.926 224.881 354.341 218 320 218C285.659 218 254.074 224.881 230.705 236.468C207.958 247.747 190 265.197 190 287.5C190 309.803 207.958 327.253 230.705 338.532C254.074 350.119 285.659 357 320 357Z" fill="#0D1820" stroke="#B49E2B" stroke-width="20"/>
<path d="M367 287.5C367 315.08 345.271 337 319 337C292.729 337 271 315.08 271 287.5C271 259.92 292.729 238 319 238C345.271 238 367 259.92 367 287.5Z" fill="#0D1820" stroke="#B49E2B" stroke-width="20"/>
<path d="M343 287.5C343 299.852 332.555 310 319.5 310C306.445 310 296 299.852 296 287.5C296 275.148 306.445 265 319.5 265C332.555 265 343 275.148 343 287.5Z" fill="#B49E2B" stroke="#B49E2B" stroke-width="4"/>
<g style="mix-blend-mode:lighten">
<path d="M76.1007 458L318.5 20.6292L560.899 458H76.1007Z" fill="#0D1820"/>
<path d="M76.1007 458L318.5 20.6292L560.899 458H76.1007Z" stroke="#B49E2B" stroke-width="20"/>
</g>
<path d="M671.375 340V180H725.438C737.99 180 748.25 182.266 756.219 186.797C764.24 191.276 770.177 197.344 774.031 205C777.885 212.656 779.813 221.198 779.813 230.625C779.813 240.052 777.885 248.62 774.031 256.328C770.229 264.036 764.344 270.182 756.375 274.766C748.406 279.297 738.198 281.562 725.75 281.562H687V264.375H725.125C733.719 264.375 740.62 262.891 745.828 259.922C751.036 256.953 754.813 252.943 757.156 247.891C759.552 242.786 760.75 237.031 760.75 230.625C760.75 224.219 759.552 218.49 757.156 213.437C754.813 208.385 751.01 204.427 745.75 201.562C740.49 198.646 733.51 197.187 724.812 197.187H690.75V340H671.375ZM797.273 180H819.461L863.836 254.687H865.711L910.086 180H932.273L874.461 274.063V340H855.086V274.063L797.273 180ZM958.68 197.187V180H1078.68V197.187H1028.37V340H1008.99V197.187H958.68ZM1108.58 340V180H1127.96V251.25H1213.27V180H1232.64V340H1213.27V268.437H1127.96V340H1108.58ZM1290.81 180V340H1271.43V180H1290.81ZM1336.22 340H1315.91L1374.66 180H1394.66L1453.41 340H1433.09L1385.28 205.312H1384.03L1336.22 340ZM1343.72 277.5H1425.59V294.687H1343.72V277.5Z" fill="#B49E2B"/>
</g>
<defs>
<filter id="filter0_d_0_1" x="0" y="0" width="1544" height="500" filterUnits="userSpaceOnUse" color-interpolation-filters="sRGB">
<feFlood flood-opacity="0" result="BackgroundImageFix"/>
<feColorMatrix in="SourceAlpha" type="matrix" values="0 0 0 0 0 0 0 0 0 0 0 0 0 0 0 0 0 0 127 0" result="hardAlpha"/>
<feOffset dy="4"/>
<feGaussianBlur stdDeviation="2"/>
<feComposite in2="hardAlpha" operator="out"/>
<feColorMatrix type="matrix" values="0 0 0 0 0 0 0 0 0 0 0 0 0 0 0 0 0 0 0.25 0"/>
<feBlend mode="normal" in2="BackgroundImageFix" result="effect1_dropShadow_0_1"/>
<feBlend mode="normal" in="SourceGraphic" in2="effect1_dropShadow_0_1" result="shape"/>
</filter>
<clipPath id="clip0_0_1">
<rect width="1536" height="492" fill="white" transform="translate(4)"/>
</clipPath>
</defs>
</svg>
