<svg width="708" height="644" viewBox="0 0 708 644" fill="none" xmlns="http://www.w3.org/2000/svg">
<g clip-path="url(#clip0_0_1)" filter="url(#filter0_d_0_1)">
<rect width="700" height="636" transform="translate(4)" fill="#0D1820"/>
<path d="M346 502C389.661 502 429.678 493.689 459.154 479.813C487.846 466.305 510 445.667 510 419.5C510 393.333 487.846 372.695 459.154 359.187C429.678 345.311 389.661 337 346 337C302.339 337 262.322 345.311 232.846 359.187C204.154 372.695 182 393.333 182 419.5C182 445.667 204.154 466.305 232.846 479.813C262.322 493.689 302.339 502 346 502Z" fill="#0D1820" stroke="#B49E2B" stroke-width="20"/>
<path d="M409 419.5C409 453.763 380.381 482 344.5 482C308.619 482 280 453.763 280 419.5C280 385.237 308.619 357 344.5 357C380.381 357 409 385.237 409 419.5Z" fill="#0D1820" stroke="#B49E2B" stroke-width="20"/>
<path d="M376 419C376 434.316 362.498 447 345.5 447C328.502 447 315 434.316 315 419C315 403.684 328.502 391 345.5 391C362.498 391 376 403.684 376 419Z" fill="#B49E2B" stroke="#B49E2B" stroke-width="4"/>
</g>
<g style="mix-blend-mode:lighten">
<path d="M107.101 517L349.5 79.6292L591.899 517H107.101Z" fill="#0D1820"/>
<path d="M107.101 517L349.5 79.6292L591.899 517H107.101Z" stroke="#B49E2B" stroke-width="20"/>
</g>
<defs>
<filter id="filter0_d_0_1" x="0" y="0" width="708" height="644" filterUnits="userSpaceOnUse" color-interpolation-filters="sRGB">
<feFlood flood-opacity="0" result="BackgroundImageFix"/>
<feColorMatrix in="SourceAlpha" type="matrix" values="0 0 0 0 0 0 0 0 0 0 0 0 0 0 0 0 0 0 127 0" result="hardAlpha"/>
<feOffset dy="4"/>
<feGaussianBlur stdDeviation="2"/>
<feComposite in2="hardAlpha" operator="out"/>
<feColorMatrix type="matrix" values="0 0 0 0 0 0 0 0 0 0 0 0 0 0 0 0 0 0 0.25 0"/>
<feBlend mode="normal" in2="BackgroundImageFix" result="effect1_dropShadow_0_1"/>
<feBlend mode="normal" in="SourceGraphic" in2="effect1_dropShadow_0_1" result="shape"/>
</filter>
<clipPath id="clip0_0_1">
<rect width="700" height="636" fill="white" transform="translate(4)"/>
</clipPath>
</defs>
</svg>
