<svg width="421" height="410" viewBox="0 0 421 410" fill="none" xmlns="http://www.w3.org/2000/svg">
<g clip-path="url(#clip0_0_1)" filter="url(#filter0_d_0_1)">
<rect width="413" height="402" transform="translate(4)" fill="#0D1820"/>
<mask id="path-1-inside-1_0_1" fill="white">
<path d="M210.5 368C288.096 368 351 308.23 351 234.5C351 160.77 288.096 101 210.5 101C132.904 101 70 160.77 70 234.5C70 308.23 132.904 368 210.5 368Z"/>
</mask>
<path d="M210.5 368C288.096 368 351 308.23 351 234.5C351 160.77 288.096 101 210.5 101C132.904 101 70 160.77 70 234.5C70 308.23 132.904 368 210.5 368Z" stroke="#335ECC" stroke-width="24" mask="url(#path-1-inside-1_0_1)"/>
<path d="M39.6644 328.75L210.5 39.6562L381.336 328.75H39.6644Z" fill="#6A67EE" stroke="#0D1820" stroke-width="20"/>
<path d="M298 236.528C277.124 254.778 258.825 271 210.5 271C162.175 271 139.434 253.156 123 236.528C139.434 217.872 162.175 198 210.5 198C258.825 198 279.345 217.872 298 236.528Z" fill="#94A1E1"/>
<ellipse cx="94" cy="169.5" rx="19" ry="17.5" fill="#335ECC"/>
<ellipse cx="211" cy="360.5" rx="19" ry="18.5" fill="#335ECC"/>
<ellipse cx="326" cy="169.5" rx="19" ry="17.5" fill="#335ECC"/>
<ellipse cx="211" cy="232.5" rx="32" ry="28.5" fill="#D9D9D9"/>
<ellipse rx="34.061" ry="39.9465" transform="matrix(0.00561582 -0.999984 0.999992 0.0040167 209.017 24.8898)" fill="#6A67EE"/>
<ellipse rx="42.8438" ry="40.0047" transform="matrix(0.00561582 -0.999984 0.999992 0.0040167 209.236 0.00379356)" fill="#0D1820"/>
</g>
<defs>
<filter id="filter0_d_0_1" x="0" y="0" width="421" height="410" filterUnits="userSpaceOnUse" color-interpolation-filters="sRGB">
<feFlood flood-opacity="0" result="BackgroundImageFix"/>
<feColorMatrix in="SourceAlpha" type="matrix" values="0 0 0 0 0 0 0 0 0 0 0 0 0 0 0 0 0 0 127 0" result="hardAlpha"/>
<feOffset dy="4"/>
<feGaussianBlur stdDeviation="2"/>
<feComposite in2="hardAlpha" operator="out"/>
<feColorMatrix type="matrix" values="0 0 0 0 0 0 0 0 0 0 0 0 0 0 0 0 0 0 0.25 0"/>
<feBlend mode="normal" in2="BackgroundImageFix" result="effect1_dropShadow_0_1"/>
<feBlend mode="normal" in="SourceGraphic" in2="effect1_dropShadow_0_1" result="shape"/>
</filter>
<clipPath id="clip0_0_1">
<rect width="413" height="402" fill="white" transform="translate(4)"/>
</clipPath>
</defs>
</svg>
